<svg width="18" height="16" viewBox="0 0 18 16" fill="none" xmlns="http://www.w3.org/2000/svg">
<path fill-rule="evenodd" clip-rule="evenodd" d="M6.39844 3.31547C6.39844 4.87102 5.11604 6.13184 3.53272 6.13184C1.95032 6.13184 0.666992 4.87102 0.666992 3.31547C0.666992 1.76082 1.95032 0.5 3.53272 0.5C5.11604 0.5 6.39844 1.76082 6.39844 3.31547ZM16.0781 2.08194C16.7707 2.08194 17.3337 2.63502 17.3337 3.31547C17.3337 3.99682 16.7707 4.54991 16.0781 4.54991H10.5985C9.905 4.54991 9.34204 3.99682 9.34204 3.31547C9.34204 2.63502 9.905 2.08194 10.5985 2.08194H16.0781ZM1.92347 11.2983H7.40307C8.09658 11.2983 8.65954 11.8514 8.65954 12.5327C8.65954 13.2132 8.09658 13.7672 7.40307 13.7672H1.92347C1.22995 13.7672 0.666992 13.2132 0.666992 12.5327C0.666992 11.8514 1.22995 11.2983 1.92347 11.2983ZM14.4679 15.3148C16.0513 15.3148 17.3337 14.054 17.3337 12.4993C17.3337 10.9438 16.0513 9.68297 14.4679 9.68297C12.8855 9.68297 11.6022 10.9438 11.6022 12.4993C11.6022 14.054 12.8855 15.3148 14.4679 15.3148Z" fill="#246BFD"/>
</svg>
